<?xml version="1.0" encoding="UTF-8"?><svg id="Layer_2" xmlns="http://www.w3.org/2000/svg" viewBox="0 0 529.1 383.37"><defs><style>.cls-1{fill:#c89f63;}</style></defs><g id="Layer_1-2"><g><path class="cls-1" d="m191.81,174.47L20.93,3.59C16.14-1.2,8.38-1.2,3.59,3.59h0c-4.79,4.79-4.79,12.55,0,17.34l170.75,170.75L3.59,362.43c-4.79,4.79-4.79,12.55,0,17.34h0c4.79,4.79,12.55,4.79,17.34,0l170.88-170.88c9.51-9.51,9.51-24.92,0-34.42Z"/><path class="cls-1" d="m356.89,174.47L186.01,3.59c-4.79-4.79-12.55-4.79-17.34,0h0c-4.79,4.79-4.79,12.55,0,17.34l170.75,170.75-170.75,170.75c-4.79,4.79-4.79,12.55,0,17.34s12.55,4.79,17.34,0l170.88-170.88c9.51-9.51,9.51-24.92,0-34.42Z"/><path class="cls-1" d="m521.97,174.47L351.09,3.59c-4.79-4.79-12.55-4.79-17.34,0h0c-4.79,4.79-4.79,12.55,0,17.34l170.75,170.75-170.75,170.75c-4.79,4.79-4.79,12.55,0,17.34s12.55,4.79,17.34,0l170.88-170.88c9.51-9.51,9.51-24.92,0-34.42Z"/></g></g></svg>