<svg preserveAspectRatio="none" overflow="visible" style="display: block;" width="14.1668" height="15.5871" viewBox="0 0 14.1668 15.5871" fill="none" xmlns="http://www.w3.org/2000/svg">
<g id="Group">
<path id="Vector" d="M2.83339 4.95833C2.83339 3.83116 3.28116 2.75016 4.07818 1.95313C4.87521 1.1561 5.95622 0.708333 7.08339 0.708333C8.21056 0.708333 9.29156 1.1561 10.0886 1.95313C10.8856 2.75016 11.3334 3.83116 11.3334 4.95833C11.3334 9.91667 13.4584 11.3333 13.4584 11.3333H0.708388C0.708388 11.3333 2.83339 9.91667 2.83339 4.95833Z" stroke="#3A4256" stroke-width="1.41667" stroke-linecap="round" stroke-linejoin="round"/>
<path id="Vector_2" d="M5.87922 14.1667C5.99778 14.3823 6.17208 14.5622 6.3839 14.6874C6.59573 14.8127 6.8373 14.8788 7.08339 14.8788C7.32948 14.8788 7.57105 14.8127 7.78287 14.6874C7.9947 14.5622 8.16899 14.3823 8.28755 14.1667" stroke="#3A4256" stroke-width="1.41667" stroke-linecap="round" stroke-linejoin="round"/>
</g>
</svg>
