<?xml version="1.0" encoding="UTF-8"?><svg id="Layer_2" xmlns="http://www.w3.org/2000/svg" viewBox="0 0 529.1 383.37"><defs><style>.cls-1{fill:#c89f63;}</style></defs><g id="Layer_1-2"><g><path class="cls-1" d="m337.28,174.47L508.16,3.59c4.79-4.79,12.55-4.79,17.34,0h0c4.79,4.79,4.79,12.55,0,17.34l-170.75,170.75,170.75,170.75c4.79,4.79,4.79,12.55,0,17.34h0c-4.79,4.79-12.55,4.79-17.34,0l-170.88-170.88c-9.51-9.51-9.51-24.92,0-34.42Z"/><path class="cls-1" d="m172.21,174.47L343.09,3.59c4.79-4.79,12.55-4.79,17.34,0h0c4.79,4.79,4.79,12.55,0,17.34l-170.75,170.75,170.75,170.75c4.79,4.79,4.79,12.55,0,17.34s-12.55,4.79-17.34,0l-170.88-170.88c-9.51-9.51-9.51-24.92,0-34.42Z"/><path class="cls-1" d="m7.13,174.47L178.01,3.59c4.79-4.79,12.55-4.79,17.34,0h0c4.79,4.79,4.79,12.55,0,17.34L24.6,191.68l170.75,170.75c4.79,4.79,4.79,12.55,0,17.34s-12.55,4.79-17.34,0L7.13,208.9c-9.51-9.51-9.51-24.92,0-34.42Z"/></g></g></svg>