<?xml version="1.0" encoding="UTF-8"?>
<svg xmlns="http://www.w3.org/2000/svg" xmlns:xlink="http://www.w3.org/1999/xlink" viewBox="0 0 157.5 184.44">
  <defs>
    <style>
      .cls-1 {
        fill: #0071bc;
      }

      .cls-2 {
        clip-path: url(#clippath);
      }

      .cls-3 {
        fill: none;
      }
    </style>
    <clipPath id="clippath">
      <rect class="cls-3" x="-15.01" y="630.45" width="1920" height="372"/>
    </clipPath>
  </defs>
  <g id="_圖層_1" data-name="圖層 1">
    <g class="cls-2">
      <image width="2431" height="3640" transform="translate(-32.01 -1504.55) scale(.81)" xlink:href="../../../../作文批改系統/img source/pexels-cottonbro-3201478.jpg"/>
    </g>
  </g>
  <g id="_圖層_4" data-name="圖層 4">
    <path class="cls-1" d="M44.75,28.4c2.1,1.56,4.43,2.89,6.27,4.71,16.12,15.92,32.17,31.92,48.22,47.91,7.9,7.87,7.84,14.82-.17,22.77-16.08,15.96-32.17,31.91-48.23,47.89-1.83,1.82-3.53,3.78-6.01,6.44,2.48,.25,3.87,.52,5.26,.52,25.5,.02,50.99-.08,76.49,.11,4.45,.03,5.87-1.33,5.62-5.71-.23-3.94-.11-8.05,.74-11.88,1.33-6.04,5.82-8.73,12.81-8.58,6.13,.13,11,3.2,11.32,9.05,.62,11.25,.57,22.6-.12,33.85-.35,5.67-5.78,8.84-12.69,8.87-16.5,.07-102.15-.04-128.48,.09-6.59,.03-11.92-1.76-14.63-8.13-2.75-6.48,.05-11.48,4.67-16.05,21.44-21.21,42.73-42.57,64.22-63.73,3.14-3.09,3.62-4.91,.16-8.3C48.75,67.27,27.51,46.1,6.34,24.86c-2.39-2.4-4.67-5.39-5.75-8.53C-1.71,9.61,3.02,2.23,10.1,.78,12.85,.22,15.72,.04,18.53,.03c40.16-.05,80.32-.05,120.48,0,2.98,0,6.01,.21,8.94,.74,4.83,.89,8.86,3.75,9.09,8.67,.52,11.27,.55,22.6-.03,33.86-.28,5.32-5.67,8.78-11.58,9.04-5.8,.26-11.17-2.86-12.27-8.16-.97-4.66-.89-9.57-1.01-14.37-.06-2.51-.8-3.59-3.45-3.58-27.16,.08-54.32,.07-81.48,.11-.31,0-.62,.21-.93,.32-.51,.58-1.02,1.16-1.54,1.74Z"/>
  </g>
</svg>