<?xml version="1.0" encoding="UTF-8"?><svg id="_圖層_1" xmlns="http://www.w3.org/2000/svg" xmlns:xlink="http://www.w3.org/1999/xlink" viewBox="0 0 190.23 40.41"><defs><style>.cls-1{fill:#fff;}.cls-2{clip-path:url(#clippath);}.cls-3{fill:none;}.cls-4{fill:#ed1e79;}.cls-5{fill:#29abe2;}</style><clipPath id="clippath"><rect class="cls-3" x="-302.77" y="224" width="1920" height="372"/></clipPath></defs><g class="cls-2"><image width="2431" height="3640" transform="translate(-319.77 -1911) scale(.81)" xlink:href="../img source/pexels-cottonbro-3201478.jpg"/></g><g><g><g><path class="cls-1" d="M87.2,40.19l-2.39-9.1h1.62l1.64,6.96h.03l1.83-6.96h1.63l1.78,6.96h.03l1.69-6.96h1.62l-2.51,9.1h-1.62l-1.82-6.96h-.02l-1.86,6.96h-1.64Z"/><path class="cls-1" d="M100.91,40.19v-9.1h4.34c.99,0,1.73,.21,2.24,.64,.51,.43,.76,1.03,.76,1.82,0,1.18-.5,1.95-1.5,2.29v.03c.9,.13,1.35,.77,1.35,1.92,0,1.24,.17,2.04,.5,2.39h-1.71c-.16-.26-.24-.71-.24-1.34,0-.87-.12-1.49-.36-1.83-.26-.38-.75-.57-1.45-.57h-2.34v3.75h-1.59Zm1.59-7.8v2.84h2.61c1.04,0,1.55-.48,1.55-1.45s-.53-1.39-1.58-1.39h-2.59Z"/><path class="cls-1" d="M113.06,40.19v-9.1h1.59v9.1h-1.59Z"/><path class="cls-1" d="M118.92,32.47v-1.38h7.36v1.38h-2.89v7.72h-1.59v-7.72h-2.88Z"/><path class="cls-1" d="M130.52,40.19v-9.1h1.59v9.1h-1.59Z"/><path class="cls-1" d="M137.19,40.19v-9.1h1.69l4.17,6.7v-6.7h1.52v9.1h-1.68l-4.14-6.69h-.04v6.69h-1.52Z"/><path class="cls-1" d="M157.57,35.4v4.79h-1.02l-.24-1.07c-.42,.48-.83,.81-1.25,1s-.92,.29-1.48,.29c-1.33,0-2.39-.47-3.2-1.41-.77-.89-1.16-2.01-1.16-3.35s.39-2.46,1.16-3.36c.81-.93,1.87-1.4,3.2-1.4,1.04,0,1.9,.26,2.6,.79,.75,.55,1.18,1.32,1.3,2.32h-1.55c-.08-.58-.34-1.03-.8-1.35-.42-.31-.94-.46-1.54-.46-.91,0-1.61,.36-2.11,1.08-.43,.63-.65,1.42-.65,2.38s.22,1.75,.65,2.38c.49,.71,1.2,1.07,2.11,1.08,.81,0,1.43-.21,1.87-.66,.44-.45,.66-1.06,.68-1.84h-2.42v-1.21h3.87Z"/><path class="cls-1" d="M162.48,40.19v-9.1h1.59v9.1h-1.59Z"/><path class="cls-1" d="M169.15,40.19v-9.1h1.69l4.17,6.7v-6.7h1.52v9.1h-1.68l-4.14-6.69h-.04v6.69h-1.52Z"/><path class="cls-1" d="M189.53,35.4v4.79h-1.02l-.24-1.07c-.42,.48-.83,.81-1.25,1s-.92,.29-1.48,.29c-1.33,0-2.39-.47-3.2-1.41-.77-.89-1.16-2.01-1.16-3.35s.39-2.46,1.16-3.36c.81-.93,1.87-1.4,3.2-1.4,1.04,0,1.9,.26,2.6,.79,.75,.55,1.18,1.32,1.3,2.32h-1.55c-.08-.58-.34-1.03-.8-1.35-.42-.31-.94-.46-1.54-.46-.91,0-1.61,.36-2.11,1.08-.43,.63-.65,1.42-.65,2.38s.22,1.75,.65,2.38c.49,.71,1.2,1.07,2.11,1.08,.81,0,1.43-.21,1.87-.66,.44-.45,.66-1.06,.68-1.84h-2.42v-1.21h3.87Z"/></g><g><path class="cls-1" d="M85.18,4.71h7.31c.44,0,.76,.1,.94,.3,.16,.15,.25,.44,.25,.89,0,.39-.07,.69-.2,.89-.21,.28-.54,.42-.99,.42h-7.31c-.38,0-.68-.11-.89-.32-.2-.18-.3-.51-.3-.99,0-.39,.1-.7,.3-.91,.21-.18,.51-.27,.89-.27Zm.89,10.66h5.16c1.05,0,1.58,.53,1.58,1.6v4.15c0,1.04-.53,1.56-1.58,1.56h-5.16c-1.04,0-1.56-.52-1.56-1.56v-4.15c0-1.07,.52-1.6,1.56-1.6Zm0-14.02h5.43c.38,0,.65,.07,.81,.22,.18,.15,.27,.44,.27,.86s-.05,.69-.15,.84c-.2,.23-.51,.35-.94,.35h-5.43c-.31,0-.57-.09-.77-.27-.21-.15-.32-.45-.32-.91,0-.41,.11-.71,.32-.89,.15-.13,.4-.2,.77-.2Zm0,7.03h5.33c.41,0,.7,.07,.86,.22,.15,.15,.22,.44,.22,.86,0,.33-.07,.58-.2,.74-.18,.23-.48,.35-.89,.35h-5.33c-.35,0-.62-.08-.81-.25-.18-.16-.27-.44-.27-.84s.09-.67,.27-.86c.2-.15,.47-.22,.81-.22Zm0,3.46h5.33c.41,0,.7,.07,.86,.22,.15,.15,.22,.44,.22,.86,0,.33-.07,.58-.2,.74-.18,.21-.48,.32-.89,.32h-5.33c-.35,0-.62-.08-.81-.25-.18-.15-.27-.42-.27-.81,0-.36,.09-.65,.27-.86,.2-.15,.47-.22,.81-.22Zm3.97,8.56c.25,0,.37-.12,.37-.37v-1.97c0-.26-.12-.39-.37-.39h-2.79c-.25,0-.37,.13-.37,.39v1.97c0,.25,.12,.37,.37,.37h2.79ZM96.26,1.36c.38,0,.69,.07,.94,.2,.28,.16,.42,.46,.42,.89-.02,.26-.05,.5-.1,.72-.23,.95-.59,2.01-1.09,3.16h7.06c-.33-.79-.67-1.69-1.01-2.69-.12-.31-.35-.47-.69-.47h-2.47c-.38-.03-.65-.13-.81-.3-.18-.23-.27-.53-.27-.89s.1-.63,.3-.81c.16-.18,.43-.27,.79-.27h3.16c.97,0,1.73,.68,2.27,2.05,.71,1.88,1.43,3.63,2.17,5.26,.13,.23,.2,.49,.2,.77,0,.26-.11,.5-.32,.72-.28,.25-.6,.37-.96,.37-.4,0-.69-.1-.89-.3-.13-.25-.26-.53-.4-.84v3.73c0,.91-.47,1.36-1.41,1.36h-.67v6.42c.02,.28,.15,.42,.39,.42h.49c.39-.05,.63-.34,.72-.86,.08-.39,.13-1.13,.15-2.2,.02-.23,.13-.42,.35-.57,.26-.08,.44-.12,.54-.12,.33,0,.58,.02,.77,.07,.33,.12,.5,.42,.52,.91,0,1.5-.12,2.67-.35,3.5-.3,.89-.86,1.4-1.7,1.53h-2.57c-1.05-.08-1.58-.77-1.58-2.07v-7.03h-1.43c-.07,1.63-.26,3-.57,4.12-.53,1.79-1.44,3.29-2.74,4.49-.31,.33-.62,.49-.91,.49-.36,0-.69-.15-.99-.44-.2-.21-.32-.49-.37-.84,0-.35,.12-.64,.37-.89,1.2-1.17,1.96-2.24,2.27-3.21,.36-.84,.58-2.08,.67-3.73h-.35c-.94,0-1.41-.45-1.41-1.36v-2.94c-.21,.23-.5,.35-.86,.35-.39,0-.72-.11-.96-.32-.23-.16-.35-.42-.35-.77,.02-.16,.09-.34,.22-.52,1.22-2.02,2.13-4.15,2.74-6.37,.15-.43,.39-.67,.72-.72Zm5.33,10.39c.31,0,.47-.16,.47-.49v-2.2c0-.31-.16-.47-.47-.47h-3.88c-.31,0-.47,.16-.47,.47v2.2c0,.33,.16,.49,.47,.49h3.88Z"/><path class="cls-1" d="M123.17,.37c.53,0,.9,.1,1.11,.3,.3,.25,.44,.58,.44,.99V3.95h8.81c.44,0,.78,.09,1.01,.27,.18,.16,.27,.5,.27,1.01,0,.41-.08,.72-.25,.94-.21,.28-.56,.42-1.04,.42h-2.57c-.05,.18-.12,.38-.2,.59-1.38,3.29-3.24,6.11-5.58,8.47-.08,.1-.16,.19-.25,.27,2.52,2.17,5.48,3.67,8.89,4.49,.53,.25,.79,.64,.79,1.18-.03,.44-.18,.79-.44,1.04-.23,.25-.62,.37-1.16,.37-.92,0-1.94-.25-3.06-.74-2.7-1.18-5.06-2.67-7.08-4.44-2.17,1.79-4.8,3.42-7.9,4.89-.56,.28-1.09,.44-1.58,.49-.51,0-.91-.19-1.18-.57-.21-.31-.32-.66-.32-1.04,0-.44,.17-.77,.52-.99,3.59-1.65,6.38-3.27,8.37-4.89-1.43-1.65-2.98-4-4.64-7.06-.44-.81-.74-1.5-.89-2.07h-2.37c-.41,0-.73-.1-.96-.3-.21-.2-.32-.55-.32-1.06,0-.44,.11-.78,.32-1.01,.23-.18,.55-.27,.96-.27h8.81V1.65c0-.35,.13-.67,.39-.99,.18-.2,.54-.3,1.09-.3Zm-4.94,6.22c1.23,2.68,2.77,5.1,4.62,7.26,2.24-2.16,3.96-4.57,5.16-7.26h-9.77Z"/><path class="cls-1" d="M143.57,.1c.3,0,.59,.07,.89,.22,.31,.21,.47,.5,.47,.86,0,.26-.05,.56-.15,.89h3.31c1.2,.05,1.8,.5,1.8,1.36-.18,.81-.67,1.77-1.46,2.89h.84c1.07,0,1.6,.49,1.6,1.46v12.96c0,.89-.12,1.49-.35,1.8-.33,.44-.85,.67-1.56,.67-1.1,0-1.86-.12-2.27-.37-.35-.2-.54-.5-.59-.91,0-.48,.11-.85,.32-1.11,.25-.26,.58-.39,.99-.39,.05,.03,.13,.07,.25,.1,.2,.07,.37,.1,.52,.1,.21,0,.32-.16,.32-.47v-2.57h-6.17c-.15,1.71-.4,3.19-.77,4.44-.08,.3-.19,.53-.32,.72-.21,.3-.56,.45-1.04,.47-.41,0-.72-.09-.94-.27-.23-.2-.35-.47-.35-.81,0-.13,.07-.42,.2-.86,.51-1.61,.81-3.13,.91-4.57,.05-.9,.07-1.77,.07-2.59v-5.9c0-.25,.02-.45,.07-.62-.15-.07-.29-.16-.42-.27-.25-.28-.37-.58-.37-.89,0-.15,.07-.28,.2-.39,.12-.21,.28-.47,.49-.77,.71-1.07,1.27-1.99,1.68-2.76,.54-1.05,.87-1.73,.99-2.02,.26-.25,.53-.37,.81-.37Zm-1.23,6.22h2.99c.79-1.04,1.23-1.69,1.31-1.97,0-.11-.07-.18-.2-.2h-2.74c-.21,.36-.44,.75-.69,1.16-.25,.36-.47,.7-.67,1.01Zm.12,9.06h1.9v-2.27h-1.88v.99c-.02,.46-.02,.89-.02,1.28Zm.02-4.44h1.88v-2.44h-1.41c-.31,0-.47,.12-.47,.37v2.07Zm4.25-2.44v2.44h1.78v-2.17c0-.18-.11-.27-.32-.27h-1.46Zm0,6.89h1.78v-2.27h-1.78v2.27Zm13.11-14.02c.71,0,1.23,.15,1.58,.44,.33,.23,.49,.77,.49,1.63,0,1.35-.02,2.39-.07,3.13-.12,1.05-.49,1.74-1.14,2.07-.39,.25-1.01,.39-1.85,.42-1.15,0-1.97-.13-2.44-.39-.33-.21-.49-.57-.49-1.06,.02-.23,.12-.45,.32-.67,.18-.16,.4-.25,.67-.25,.08,0,.21,.02,.37,.05,.38,.1,.75,.15,1.11,.15,.56,0,.88-.19,.96-.57,.08-.51,.12-1.34,.12-2.49,0-.2-.07-.3-.2-.3h-3.33c-.02,.1-.03,.2-.05,.3-.26,.99-.6,1.86-1.01,2.62-.51,.99-1.03,1.76-1.56,2.32-.21,.31-.51,.49-.89,.52-.39,0-.7-.12-.91-.37-.25-.2-.37-.47-.37-.81,0-.18,.07-.36,.22-.54,.51-.63,.99-1.31,1.43-2.05,.33-.64,.61-1.3,.84-1.97h-1.88c-.59,0-.89-.3-.89-.89,0-.84,.3-1.27,.89-1.28h8.07Zm-6.19,7.92c.41,0,.72,.07,.91,.2,.31,.13,.47,.43,.47,.89,0,.2-.06,.51-.17,.94-.02,.05-.02,.1-.02,.15h1.48v-.99c0-.38,.11-.67,.32-.89,.21-.2,.49-.3,.84-.3,.41,0,.72,.1,.94,.3,.23,.21,.35,.51,.35,.89v.99h2.07c.43,0,.71,.07,.84,.22,.16,.13,.25,.42,.25,.86,0,.33-.06,.56-.17,.69-.16,.26-.47,.39-.91,.39h-2.07v2.54h2.69c.38,0,.66,.08,.84,.25,.16,.15,.25,.43,.25,.84,0,.38-.07,.65-.2,.81-.21,.25-.51,.37-.89,.37h-2.69v3.48c0,.3-.07,.55-.22,.77-.21,.28-.57,.42-1.06,.42-.36,0-.67-.14-.91-.42-.16-.21-.25-.47-.25-.77v-3.48h-3.88c-.35,0-.61-.09-.79-.27-.2-.15-.3-.45-.3-.91,0-.36,.1-.64,.3-.84,.18-.16,.44-.25,.79-.25h3.88v-2.54h-2.17c-.18,.49-.35,.89-.49,1.18-.23,.38-.6,.57-1.11,.57-.33,0-.62-.1-.86-.3-.21-.18-.32-.4-.32-.67,0-.11,.07-.33,.22-.64,.56-1.17,1.02-2.44,1.38-3.83,.11-.44,.35-.67,.69-.67Z"/><path class="cls-1" d="M171.64,8.86h14.14c1.17,0,1.75,.6,1.75,1.8v4.52c0,1.2-.58,1.8-1.75,1.8h-5.55v1.18h8.91c.38,0,.67,.07,.86,.22,.15,.15,.22,.44,.22,.86,0,.36-.07,.63-.2,.81-.2,.23-.49,.35-.89,.35h-8.91v1.8c0,.49-.11,.84-.32,1.04-.23,.21-.58,.32-1.04,.32s-.82-.11-1.04-.32c-.23-.2-.35-.54-.35-1.04v-1.8h-9.21c-.35,0-.62-.09-.81-.27-.18-.15-.27-.44-.27-.89,0-.36,.09-.65,.27-.86,.2-.15,.47-.22,.81-.22h9.21v-1.18h-5.85c-1.17,0-1.75-.6-1.75-1.8v-4.52c0-1.2,.58-1.8,1.75-1.8Zm7.23-8.86c.49,0,.84,.09,1.04,.27,.28,.21,.42,.52,.42,.91v.79h8.19c.38,0,.64,.07,.79,.22,.15,.12,.22,.37,.22,.77,0,.33-.07,.57-.2,.72-.16,.25-.44,.37-.81,.37h-3.06l-.74,1.56h4.42c.38,0,.67,.08,.86,.25,.15,.15,.22,.43,.22,.84,0,.35-.07,.6-.2,.76-.2,.21-.49,.32-.89,.32h-20.76c-.35,0-.62-.08-.81-.25-.18-.15-.27-.43-.27-.84,0-.36,.09-.64,.27-.84,.2-.16,.47-.25,.81-.25h4.17l-.72-1.56h-2.84c-.35,0-.6-.09-.77-.27-.15-.15-.22-.42-.22-.81,0-.35,.07-.61,.22-.79,.16-.13,.42-.2,.77-.2h8.49v-.79c0-.35,.12-.66,.37-.94,.16-.16,.5-.25,1.01-.25Zm-6.42,12.12h12.54v-.77c0-.35-.17-.52-.52-.52h-11.55c-.31,0-.47,.17-.47,.52v.77Zm12.02,2.89c.35,0,.52-.16,.52-.49v-.59h-12.54v.59c0,.33,.16,.49,.47,.49h11.55Zm-8.96-9.4h6.24l.74-1.56h-7.7l.72,1.56Z"/></g></g><g><polygon class="cls-5" points="34.23 14.5 43.17 23.45 65.19 1.43 73.47 9.65 43.35 39.96 26.15 22.76 34.23 14.5"/><polygon class="cls-4" points="8.08 14.5 17.03 23.45 39.05 1.43 47.32 9.65 17.2 39.96 0 22.76 8.08 14.5"/></g></g></svg>