<?xml version="1.0" encoding="utf-8"?>
<!-- Generator: Adobe Illustrator 16.0.0, SVG Export Plug-In . SVG Version: 6.00 Build 0)  -->
<!DOCTYPE svg PUBLIC "-//W3C//DTD SVG 1.0//EN" "http://www.w3.org/TR/2001/REC-SVG-20010904/DTD/svg10.dtd" [
	<!ENTITY st0 "fill:#4F4F4F;">
	<!ENTITY st1 "fill-rule:evenodd;clip-rule:evenodd;fill:#4F4F4F;">
	<!ENTITY st2 "fill-rule:evenodd;clip-rule:evenodd;fill:none;stroke:#4F4F4F;stroke-width:2;stroke-miterlimit:10;">
	<!ENTITY st3 "fill-rule:evenodd;clip-rule:evenodd;fill:none;stroke:#4F4F4F;stroke-width:2.8395;stroke-miterlimit:10;">
	<!ENTITY st4 "fill:#00A0E9;">
]>
<svg version="1.0" id="圖層_1" xmlns="http://www.w3.org/2000/svg" xmlns:xlink="http://www.w3.org/1999/xlink" x="0px" y="0px"
	 width="70px" height="70px" viewBox="0 0 70 70" style="enable-background:new 0 0 70 70;" xml:space="preserve">
<g id="XMLID_33_">
	<g>
		
			<rect x="61.174" y="6.762" transform="matrix(0.5019 -0.865 0.865 0.5019 22.0668 59.9006)" style="&st0;" width="3.726" height="8.06"/>
		<path style="&st0;" d="M4.754,61.915c0,1.225,0.98,2.217,2.195,2.217h41.778c1.214,0,2.195-0.993,2.195-2.217V42.423l1.71-2.51
			v23.698c0,1.304-1.055,2.358-2.357,2.358H5.402c-1.304,0-2.358-1.055-2.358-2.358v-55.5c0-1.302,1.055-2.359,2.358-2.359h44.874
			c1.303,0,2.357,1.057,2.357,2.359v9.835l-1.71,2.797V9.807c0-1.225-0.981-2.214-2.195-2.214H6.949
			c-1.214,0-2.195,0.989-2.195,2.214V61.915z"/>
		<polygon style="&st0;" points="57.875,11.658 52.633,20.682 50.922,23.626 39.43,43.409 46.399,47.457 50.922,39.669 
			52.633,36.726 64.845,15.705 		"/>
		<polygon style="&st0;" points="45.499,48.031 38.985,52.198 39.375,44.475 		"/>
		<path style="&st0;" d="M11.834,18.177c-0.589,0-1.066-0.477-1.066-1.062c0-0.296,0.119-0.562,0.313-0.754
			c0.192-0.192,0.458-0.311,0.753-0.311h16.567c0.588,0,1.063,0.477,1.063,1.065c0,0.585-0.475,1.062-1.063,1.062H11.834z"/>
		<path style="&st0;" d="M11.834,25.905c-0.589,0-1.066-0.478-1.066-1.063c0-0.292,0.119-0.561,0.313-0.753
			c0.192-0.193,0.458-0.312,0.753-0.312h16.567c0.588,0,1.063,0.477,1.063,1.065c0,0.585-0.475,1.063-1.063,1.063H11.834z"/>
		<path style="&st0;" d="M11.834,33.349c-0.589,0-1.066-0.477-1.066-1.066c0-0.292,0.119-0.559,0.313-0.751
			c0.192-0.192,0.458-0.312,0.753-0.312h16.567c0.588,0,1.063,0.477,1.063,1.063c0,0.589-0.475,1.066-1.063,1.066H11.834z"/>
		<path style="&st0;" d="M11.834,41.268c-0.589,0-1.066-0.477-1.066-1.065c0-0.295,0.119-0.561,0.313-0.753
			c0.192-0.192,0.458-0.312,0.753-0.312h16.567c0.588,0,1.063,0.477,1.063,1.064c0,0.588-0.475,1.065-1.063,1.065H11.834z"/>
	</g>
</g>
</svg>
