<?xml version="1.0" encoding="utf-8"?>
<!-- Generator: Adobe Illustrator 16.0.0, SVG Export Plug-In . SVG Version: 6.00 Build 0)  -->
<!DOCTYPE svg PUBLIC "-//W3C//DTD SVG 1.0//EN" "http://www.w3.org/TR/2001/REC-SVG-20010904/DTD/svg10.dtd" [
	<!ENTITY st0 "fill:#4F4F4F;">
	<!ENTITY st1 "fill-rule:evenodd;clip-rule:evenodd;fill:#4F4F4F;">
	<!ENTITY st2 "fill-rule:evenodd;clip-rule:evenodd;fill:none;stroke:#4F4F4F;stroke-width:2;stroke-miterlimit:10;">
	<!ENTITY st3 "fill-rule:evenodd;clip-rule:evenodd;fill:none;stroke:#4F4F4F;stroke-width:2.8395;stroke-miterlimit:10;">
	<!ENTITY st4 "fill:#00A0E9;">
]>
<svg version="1.0" id="圖層_1" xmlns="http://www.w3.org/2000/svg" xmlns:xlink="http://www.w3.org/1999/xlink" x="0px" y="0px"
	 width="70px" height="70px" viewBox="0 0 70 70" style="enable-background:new 0 0 70 70;" xml:space="preserve">
<g>
	<path style="&st3;" d="M27.528,57.706h14.711c0.56,0,1.016,0.46,1.016,1.017v1.392c0,0.559-0.459,1.018-1.016,1.018H27.528
		c-0.557,0-1.018-0.459-1.018-1.018v-1.392C26.511,58.165,26.968,57.706,27.528,57.706L27.528,57.706z M40.334,63.144v1.634
		c0,0.985-0.804,1.791-1.79,1.791h-7.322c-0.984,0-1.789-0.806-1.789-1.791v-1.634H40.334L40.334,63.144z M34.883,17.832
		c7.789,0,14.142,6.352,14.142,14.141c0,8.79-7.19,10.825-7.19,23.65H27.934c0-12.825-7.19-14.86-7.19-23.65
		C20.743,24.184,27.096,17.832,34.883,17.832L34.883,17.832z"/>
	<path style="&st1;" d="M33.33,3.431h3.342v9.613C36.121,12.995,35.563,12.97,35,12.97c-0.563,0-1.12,0.025-1.671,0.074V3.431
		L33.33,3.431z M53.048,10.214l2.364,2.363l-6.462,6.461c-0.763-0.815-1.594-1.565-2.489-2.236L53.048,10.214L53.048,10.214z
		 M21.95,46.039l-4.997,4.999l-2.365-2.364l5.127-5.125C20.386,44.442,21.134,45.276,21.95,46.039L21.95,46.039z M16.953,10.214
		l-2.365,2.363l6.464,6.461c0.763-0.815,1.594-1.564,2.489-2.236L16.953,10.214L16.953,10.214z M48.05,46.039l4.998,4.999
		l2.364-2.364l-5.126-5.125C49.615,44.442,48.865,45.276,48.05,46.039L48.05,46.039z M62.196,28.955v3.342h-8.079
		c0.001-0.069,0.003-0.138,0.003-0.207c0-1.067-0.09-2.116-0.259-3.135H62.196L62.196,28.955z M15.884,32.297H7.805v-3.342h8.335
		c-0.169,1.02-0.259,2.068-0.259,3.135C15.881,32.159,15.882,32.228,15.884,32.297L15.884,32.297z"/>
</g>
</svg>
